<svg width="98" height="119" viewBox="0 0 98 119" fill="none" xmlns="http://www.w3.org/2000/svg">
<path d="M31.9057 1.94296C31.9015 1.9725 31.9007 2.00359 31.8965 2.03313L31.894 2.03391L31.8915 2.07355C31.7444 3.06307 31.7153 4.07824 31.8184 5.08176C31.8225 5.18436 31.8234 5.29007 31.8325 5.39268C31.8342 5.416 31.8508 5.43233 31.8624 5.45098C31.3829 8.20501 31.1893 10.98 30.9682 13.7745C30.9541 13.7589 30.9532 13.7395 30.9308 13.7271C30.9283 13.7271 30.9275 13.7255 30.9266 13.7239C30.8094 12.9933 30.6133 12.2735 30.1404 11.7978C30.0939 11.5926 30.0548 11.4122 30.0166 11.2886C29.7731 10.5571 29.5163 9.76119 28.9254 9.20308C28.7184 9.00797 28.4034 9.16032 28.3826 9.41062C28.2189 11.6034 29.2046 13.9191 30.4404 15.7442C30.526 15.8701 30.6474 15.9206 30.7662 15.9198C30.5435 17.8592 30.1845 19.7691 29.7822 21.6712C29.7398 20.5045 29.5553 19.3494 29.1198 18.2052C29.0176 17.9393 28.7167 17.9004 28.5322 18.0582C28.3402 18.0466 28.1441 18.143 28.0785 18.3544C27.6064 19.8095 27.9064 21.3945 28.381 22.8333C28.4774 23.3043 28.5821 23.7692 28.6785 24.2161C28.7234 24.4252 28.9478 24.5193 29.1522 24.4998C29.1489 24.5395 29.1431 24.5791 29.1406 24.6203C28.9254 25.5904 28.7159 26.5644 28.5156 27.5384C28.44 26.3444 28.1009 25.187 27.2864 24.3055C27.1052 24.1081 26.7703 24.2278 26.7005 24.4517C26.0198 26.6382 26.8227 29.086 27.51 31.1863C27.5565 31.3317 27.6696 31.4117 27.795 31.4374C27.5283 32.9516 27.2532 34.4619 26.9789 35.9738C26.5185 34.4246 25.5835 32.915 24.6668 32.0056C24.4931 31.833 24.1839 31.8804 24.0601 32.0802C22.6489 34.3267 24.6809 37.701 25.9949 39.5976C26.0656 39.6994 26.1719 39.7445 26.2783 39.7609C26.0107 41.1733 25.7373 42.5848 25.4572 43.9941C25.4564 43.984 25.4572 43.9739 25.458 43.9654C25.4613 43.8907 25.4239 43.8332 25.3732 43.7866C25.1721 42.8398 24.8031 41.942 24.1923 41.23C24.0194 41.0271 23.6304 41.1429 23.5789 41.3839C23.288 42.724 23.2747 44.1333 23.5615 45.4788C23.7426 46.3284 23.9961 47.4368 24.5904 48.2126C24.2529 49.8053 23.9047 51.3965 23.5407 52.9853C22.9564 51.213 21.6183 48.9091 21.3 48.4334C21.1812 48.2561 20.8238 48.1986 20.7208 48.4318C19.9005 50.2787 20.9344 52.5352 21.9641 54.4809C22.1785 55.1509 22.422 55.8054 22.7112 56.4405C22.5799 56.9861 22.4553 57.5318 22.3198 58.0752C20.5878 64.9357 18.7029 71.7606 16.7274 78.5613C15.6129 80.4657 14.5208 82.3826 13.4877 84.3212C7.72159 95.1406 2.37182 106.838 0.00402781 118.777C-0.0408514 119.01 0.302392 119.092 0.383839 118.869C4.76621 106.796 8.72556 94.8585 15.0294 83.4794C15.1948 83.1762 15.3752 82.8769 15.5439 82.5746C15.2147 83.6838 14.8906 84.793 14.559 85.9007C11.7424 95.2611 8.0798 104.374 5.29314 113.727C5.18925 114.079 5.72613 114.184 5.86243 113.864C10.6728 102.726 14.4718 91.0838 17.7687 79.3471C20.6285 75.8858 23.672 72.6374 27.2548 69.8515C27.431 69.9658 27.7577 69.853 27.7643 69.6066C27.766 69.5569 27.7743 69.5071 27.776 69.4574C27.8383 69.4107 27.9023 69.3657 27.9646 69.319C28.3901 69.1465 28.8181 68.9164 29.2428 68.6334C29.3808 68.6692 29.5163 68.7057 29.66 68.7368C32.0112 69.8352 35.673 69.3353 37.6685 67.8895C37.838 67.7652 37.7574 67.5219 37.6062 67.4294C35.8517 66.3567 33.4856 66.5044 31.3497 67.0407C33.6044 65.6711 35.9323 64.4888 38.3142 63.4215C38.3192 63.5179 38.3733 63.6151 38.4613 63.6656C38.9268 63.9268 39.457 64.097 40.0105 64.1965C41.8439 64.8969 43.9607 65.1238 45.8307 64.4445C45.9711 64.3932 46.08 64.2035 45.9337 64.09C45.5888 63.8234 45.1899 63.605 44.7752 63.4122C44.7793 63.3127 44.7336 63.2124 44.6381 63.1681C43.2252 62.5144 41.4716 62.4825 39.8983 62.7297C41.5647 62.0208 43.2559 61.3554 44.968 60.7134C47.2743 62.125 50.9419 60.5424 52.816 59.1175C52.9756 58.9955 52.8817 58.7382 52.6947 58.697C52.2609 58.6022 51.8195 58.5587 51.3741 58.5361C51.4281 58.4739 51.4929 58.418 51.5478 58.3542C51.6982 58.1669 51.4821 57.9454 51.2818 57.9282C49.2265 57.7759 47.2253 58.7483 45.4135 59.5357C45.2439 59.6119 45.3644 59.8443 45.5348 59.8094C45.7102 59.772 45.8855 59.7254 46.0584 59.6788C45.8681 59.7697 45.6786 59.8583 45.4974 59.9578C45.4866 59.964 45.4833 59.9742 45.475 59.9812C45.2564 60.0464 45.037 60.111 44.8184 60.1778C44.7261 60.156 44.6406 60.1832 44.5907 60.2462C43.3241 60.6364 42.0625 61.0764 40.8084 61.556C41.696 60.8059 42.4116 59.9275 42.7822 59.0352C42.8687 58.8253 42.6177 58.6706 42.4257 58.7032C39.649 59.1751 37.5696 61.1844 35.6057 62.931C35.4636 63.0562 35.4952 63.2599 35.6132 63.3772C35.5625 63.4239 35.5143 63.4736 35.4644 63.521C35.3647 63.6182 35.4985 63.8016 35.624 63.7185C35.732 63.6423 35.8351 63.5607 35.9415 63.4822C35.9489 63.5335 35.9755 63.5778 36.0163 63.6112C34.748 64.2198 33.5064 64.8829 32.2855 65.577C33.0817 64.4103 33.6044 63.1712 33.6302 62.125C33.6335 61.9742 33.4623 61.849 33.3069 61.8933C30.5452 62.6986 27.2881 65.9486 27.1235 68.8861C24.3194 70.9273 21.7547 73.2235 19.5539 75.7591C24.5297 67.6447 30.1096 59.8226 36.2988 52.5034C37.8521 50.6697 39.4503 48.8624 41.0826 47.0808C41.1641 47.1998 41.3885 47.2083 41.4259 47.0404C41.4558 46.8958 41.4899 46.7544 41.5198 46.6105C42.8554 45.164 44.2092 43.7306 45.5938 42.3167C45.6163 42.3299 45.6437 42.3416 45.6695 42.3571C45.4991 42.4302 45.4293 42.689 45.6354 42.7753C48.5849 44.0322 52.9507 42.2351 55.3043 40.5102C55.5105 40.3586 55.429 40.0345 55.2237 39.9233C52.7712 38.6112 49.3304 40.0182 46.7499 41.1445C48.5334 39.3458 50.3518 37.5704 52.2035 35.8222C52.2268 35.903 52.2866 35.9769 52.3988 35.9885C52.4844 35.9971 52.5759 35.9987 52.6623 36.0049C52.6731 36.0096 52.6772 36.0181 52.688 36.022C53.8881 36.2761 55.1614 36.2412 56.3989 35.9901C58.7268 35.7647 61.0439 35.1358 62.9546 34.0367C63.13 33.9357 63.213 33.6613 63.0302 33.5237C60.0923 31.2866 55.5587 33.6706 52.8069 35.2555C55.2129 32.9998 57.6671 30.7821 60.1696 28.6103C60.7771 28.8668 61.5093 28.9142 62.249 28.859C63.2147 28.9632 64.2552 28.7183 65.2168 28.3009C66.559 27.9558 67.8755 27.5026 69.0723 26.8357C69.3183 26.6973 69.3482 26.325 69.0748 26.1959C66.4859 24.9484 63.5455 26.3724 61.2716 27.6682C63.5214 25.735 65.7953 23.8267 68.1065 21.9565C68.114 21.9868 68.1215 22.0179 68.1514 22.0467C69.103 22.9445 70.9431 22.698 72.1166 22.4174C73.5452 22.0746 75.1202 21.5243 76.0975 20.4384C76.2206 20.3 76.2488 20.0272 76.0302 19.9417C73.8145 19.0773 70.8384 20.1881 68.9435 21.3113C68.7041 21.4536 68.6916 21.7761 68.9393 21.9145C68.9867 21.9409 69.0357 21.9604 69.0856 21.9852C68.8371 21.93 68.5994 21.864 68.3791 21.7715C68.3633 21.7653 68.355 21.7691 68.3409 21.7668C70.5666 19.9697 72.8147 18.1997 75.0811 16.4585C77.5893 16.991 80.5389 16.921 82.6939 15.5631C82.9167 15.4232 82.9674 15.0819 82.6973 14.9529C80.932 14.1134 78.8501 14.5432 76.9727 15.1355C76.8904 15.1589 76.8098 15.1822 76.7275 15.2071C78.0772 14.1833 79.4294 13.1658 80.7907 12.16C81.5072 12.3652 82.4504 12.1654 83.1012 12.0239C84.4052 11.7426 85.8305 11.3547 86.9766 10.6862C87.1736 10.5711 87.2334 10.2276 86.9774 10.1258C85.9801 9.73011 84.8914 9.69822 83.8475 9.91976C84.6221 9.35776 85.395 8.79654 86.1713 8.24076C86.3367 8.17702 86.5004 8.10472 86.6666 8.02543C88.3878 8.60842 91.039 7.75028 92.3696 6.8416C92.5449 6.72189 92.5391 6.53144 92.3696 6.40785C91.4204 5.72459 90.3658 5.71837 89.2937 6.0223C90.5179 5.15948 91.7454 4.30133 92.9738 3.4525C92.9829 3.47271 92.9937 3.49138 93.0195 3.50459C93.7991 3.93678 94.985 3.10194 95.6109 2.70707C96.5084 2.13652 97.5706 1.46414 97.9861 0.488607C98.0326 0.383669 97.9562 0.216553 97.8465 0.174578C95.8311 -0.624501 93.3893 1.48745 92.2424 3.10737C90.9883 3.70512 89.7624 4.35964 88.5573 5.05922C89.2305 4.23604 89.7832 3.32969 90.1414 2.35805C90.2303 2.11786 89.9187 1.94606 89.7101 2.04789C88.7377 2.51738 88.0936 3.32192 87.5725 4.20184C87.1187 4.96594 86.4804 5.74791 86.1156 6.55243C85.1224 7.19061 84.1467 7.8591 83.1818 8.54625C83.8184 7.39893 84.1866 6.19253 84.0927 5.26131C84.0711 5.02733 83.8492 4.92164 83.6248 5.00948C82.5277 5.43622 77.773 10.2423 79.5915 11.2598C79.3895 11.4192 79.1925 11.5832 78.9906 11.7449C78.9657 11.7519 78.9449 11.762 78.9208 11.7682C78.8244 11.7954 78.7762 11.8584 78.7596 11.9284C77.3857 13.0345 76.036 14.1686 74.6963 15.3166C74.9548 14.8876 75.1792 14.4484 75.3828 14.0442C75.9596 12.9039 76.563 11.6858 76.6594 10.4126C76.6801 10.1429 76.3336 10.0838 76.1499 10.2151C74.1752 11.6275 72.7258 14.0473 72.646 16.3839C72.6377 16.5759 72.7798 16.6824 72.9402 16.6987C72.8937 16.7399 72.8521 16.7827 72.8039 16.8176C72.7366 16.8697 72.7333 16.9389 72.7499 17.005C71.1749 18.3793 69.6158 19.7567 68.065 21.1108C69.2859 19.4489 70.1311 17.3377 69.9292 15.5965C69.9034 15.3695 69.6391 15.1534 69.3948 15.3065C66.7801 16.9715 65.2077 19.9875 64.8628 22.8768C64.8146 23.2577 65.393 23.3284 65.58 23.0556C65.7363 22.8232 65.8767 22.5853 66.028 22.3498C66.067 22.3428 66.1028 22.3226 66.1269 22.2822C67.1234 20.6832 67.9428 18.9926 68.9177 17.3804C69.0823 17.1045 68.8288 16.8557 68.5678 16.848C68.7797 16.6451 68.9983 16.4562 69.2277 16.2798C69.1745 18.6156 67.4658 21.0525 65.9058 22.7066C65.8086 22.8061 65.8318 22.9164 65.8983 22.9887C65.1902 23.5958 64.4821 24.1967 63.7757 24.7843C62.3753 25.9534 60.9824 27.1326 59.5986 28.3149C61.014 26.4082 61.9589 24.0148 61.5791 21.8593C61.5425 21.6487 61.2633 21.5803 61.0863 21.6665C60.8669 21.7746 60.6566 21.9083 60.4521 22.0529C60.4264 22.0669 60.4015 22.0824 60.3807 22.1034C58.3511 23.585 57.0388 26.7813 57.1552 29.1902C57.0712 29.4793 56.9923 29.7685 56.9217 30.0545C56.871 30.252 57.0638 30.3872 57.2358 30.3631C55.2703 32.0802 53.3255 33.8191 51.4123 35.5828C52.9025 33.5626 53.7876 30.7798 53.2266 28.5007C53.1751 28.2978 52.939 28.2481 52.7595 28.3203C50.1499 29.3604 48.5741 33.097 49.2091 35.7771C49.121 36.256 49.0404 36.7324 48.9714 37.1965C48.939 37.4219 49.2747 37.6007 49.4011 37.3605C49.4908 37.1903 49.5606 37.0154 49.6388 36.8413C49.7152 36.9206 49.8224 36.9633 49.938 36.9649C47.7846 38.9859 45.6744 41.0434 43.6141 43.1492C44.9023 41.5106 45.0628 37.7671 44.9389 36.4627C44.909 36.1697 44.5383 36.0764 44.3613 36.3173C43.093 38.0508 42.2603 40.0912 41.8298 42.1861C41.4549 43.3637 41.1956 44.5686 41.0926 45.7804C38.8736 48.1434 36.7185 50.5632 34.6524 53.0646C28.9827 59.9244 23.7235 67.169 19.0478 74.7011C20.5903 68.9793 22.0264 63.249 23.4143 57.5528C23.539 57.5474 23.6628 57.4487 23.6288 57.3087C23.6063 57.2092 23.5756 57.109 23.5506 57.0095C23.5673 56.9449 23.5806 56.8835 23.598 56.819C23.8731 55.6857 24.1382 54.5516 24.395 53.4167C26.1686 55.1105 31.5067 50.0618 32.3087 48.8857C32.4666 48.6557 32.2065 48.3191 31.9223 48.4116C31.4037 48.5772 30.9 48.7808 30.4047 49.007C30.3366 48.9075 30.2252 48.8352 30.0781 48.8375C27.7194 48.8593 25.8952 50.9083 24.5729 52.6044C24.8497 51.3561 25.1173 50.1038 25.3741 48.8539C25.5062 48.8477 25.6259 48.7272 25.5818 48.5958C25.5511 48.5095 25.5087 48.4279 25.4771 48.3448C25.6915 47.2853 25.9051 46.2266 26.1112 45.1679C26.1262 45.1842 26.1553 45.1927 26.1736 45.2075C26.1644 45.2223 26.1512 45.2386 26.1412 45.2518C26.0589 45.3723 26.2235 45.5324 26.3556 45.4524C26.4379 45.4026 26.5152 45.3451 26.5949 45.2915C28.5405 45.443 30.2809 43.2666 31.5217 41.5868C31.7004 41.5378 31.8857 41.5036 32.076 41.4779C31.5981 43.3241 28.9669 45.8309 26.9922 45.8122C26.7038 45.8084 26.7171 46.1986 26.9955 46.2227C29.4456 46.4388 32.445 43.2829 32.716 41.1693C32.7351 41.0271 32.5697 40.8942 32.4267 40.9012C32.283 40.9066 32.1375 40.9245 31.9929 40.9471C32.1417 40.7457 32.283 40.5592 32.411 40.3975C32.588 40.176 32.2547 39.9288 32.032 40.0399C31.6863 40.2094 30.3773 41.139 29.2104 42.1519C28.1167 42.9098 27.1435 43.9024 26.4504 44.8243C26.4188 44.8188 26.3855 44.8243 26.3548 44.8188C26.2825 44.8025 26.2218 44.8165 26.1744 44.8468C27.0945 40.1099 27.9422 35.3589 28.7999 30.5948C28.8165 30.6103 28.8264 30.6243 28.8489 30.6367C28.794 30.8676 29.124 31.0472 29.3018 30.8653C29.3318 30.8373 29.3575 30.8054 29.3866 30.7751C31.8649 30.9873 34.5943 26.3219 35.1295 24.6848C35.2001 24.4695 34.9608 24.2527 34.7322 24.3172C32.1774 25.0385 29.8927 27.8322 29.0018 30.2131C28.9993 30.2162 29.0002 30.217 28.9977 30.2162C28.9453 30.1983 28.9087 30.2131 28.8688 30.2248C28.9644 29.6838 29.0625 29.1443 29.1605 28.6017C29.5379 26.5279 30.034 24.4734 30.467 22.4104C30.6008 22.4003 30.7355 22.3335 30.8119 22.2324C30.856 22.1834 30.8826 22.1236 30.9158 22.0684C32.4525 22.0614 34.4779 18.0792 34.9292 17.347C35.0796 17.1029 34.7705 16.7811 34.5004 16.9443C33.2753 17.689 32.3345 18.7003 31.4992 19.8111C31.3472 20.0147 31.0845 20.2891 30.8269 20.5923C31.1053 19.0905 31.3272 17.5817 31.4195 16.0535C31.4361 15.7605 31.4486 15.469 31.4643 15.1775C31.52 15.1697 31.5741 15.1488 31.6123 15.1006C31.8508 14.7966 32.0104 14.4476 32.15 14.0893C33.8546 13.7636 34.6699 10.5268 34.7904 9.31345C34.8195 9.03129 34.4239 8.93258 34.2327 9.09659C33.1398 10.0317 32.0652 11.6749 31.5524 13.2513C31.648 10.9598 31.7394 8.66983 32.0345 6.39774C32.1334 6.80739 32.2456 7.21315 32.3985 7.60724C32.5522 7.99901 33.2778 7.9788 33.2263 7.50308C33.1332 6.66747 32.908 5.79145 32.7525 4.91231C33.2495 4.03861 33.2113 1.45248 33.1714 1.11201C33.134 0.807307 32.7326 0.6736 32.5423 0.956542C32.3802 1.19751 32.2522 1.4408 32.1508 1.68954C32.0336 1.71286 31.9323 1.78672 31.9057 1.94296ZM31.0513 21.5289C31.4328 20.9522 32.2348 20.0217 32.3835 19.8282C32.7434 19.3595 33.119 18.9133 33.5338 18.5013C32.7899 19.7163 31.7519 21.2569 31.0513 21.5289ZM29.8778 30.2217C31.3015 28.4447 32.0104 26.2138 34.2568 25.1637C33.5138 26.8092 31.6239 29.7685 29.8778 30.2217ZM28.4167 43.7081C28.6054 43.5238 28.7974 43.3396 28.9918 43.1616C29.2495 42.9308 29.4855 42.7325 29.6526 42.5911C29.9642 42.3454 30.29 42.1208 30.6416 41.9358C29.8429 42.9673 28.8447 44.0563 27.82 44.5616C27.8898 44.3136 28.1275 44.0089 28.4167 43.7081ZM29.5038 50.7638C29.7282 50.4878 29.9359 50.2033 30.1229 49.9056C30.354 49.7828 30.5867 49.6654 30.8252 49.5558C30.4537 49.9242 29.9991 50.3417 29.5038 50.7638ZM24.9652 53.1797C26.2035 52.0541 27.3172 50.3432 28.9744 49.7766C27.7128 50.5492 26.5842 51.5209 25.7148 52.6518C25.5985 52.8034 25.6699 53.0063 25.8121 53.1198C25.4854 53.2169 25.197 53.2442 24.9652 53.1797ZM42.4523 43.4819C42.4224 43.4896 42.3941 43.5013 42.3642 43.506C42.3791 43.3707 42.3949 43.2355 42.4124 43.0994C42.7207 42.085 43.0797 41.0877 43.5152 40.1161C43.2584 41.2735 42.9509 42.4177 42.4523 43.4819ZM51.4614 31.5532C51.2926 33.0417 50.9236 34.5622 50.0668 35.7717C50.5471 34.364 50.8447 32.9088 51.4614 31.5532ZM52.0489 33.1513C52.2999 32.0305 52.4022 30.8699 52.4504 29.7747C52.4578 29.5796 52.344 29.4645 52.196 29.4187C52.3564 29.2834 52.5268 29.1645 52.6988 29.0565C52.9399 30.3577 52.6157 31.7491 52.1254 32.9687C52.1079 33.0091 52.0822 33.0744 52.0489 33.1513ZM66.1568 20.6918C66.564 19.5297 67.1815 18.4158 67.991 17.4659C67.7916 17.8017 67.5971 18.1375 67.4093 18.478C66.9929 19.2172 66.5815 19.9572 66.1568 20.6918ZM93.1799 3.31026C93.3943 3.16646 93.6004 3.01799 93.8124 2.87419C94.0027 2.74282 93.9237 2.51428 93.7475 2.47153C94.6709 1.51777 95.635 0.509589 96.914 0.541459C97.6404 0.560115 97.0403 0.921562 96.6929 1.22782C96.2666 1.5986 95.8153 1.94452 95.3308 2.24535C94.8886 2.51741 93.7891 3.32814 93.1799 3.31026ZM87.1985 7.7464C88.6662 6.92866 90.1547 5.8272 91.7371 6.62706C91.0515 7.02349 90.2636 7.28855 89.4882 7.46344C88.8017 7.61891 87.9648 7.80703 87.1985 7.7464ZM89.1615 3.13925C88.8058 3.83417 88.3504 4.484 87.8309 5.08797C88.2174 4.40393 88.5981 3.69348 89.1615 3.13925ZM84.5016 10.4841C84.9753 10.4188 85.4557 10.4141 85.9161 10.4926C85.4316 10.7103 84.9171 10.8836 84.4052 11.036C84.4966 10.9769 84.5897 10.9194 84.6744 10.8502C84.8432 10.7181 84.6944 10.4802 84.5016 10.4841ZM83.466 5.78833C83.3779 6.97296 82.6682 8.44753 81.7024 9.64848C81.6584 9.68346 81.6143 9.71767 81.5686 9.75031C81.5753 9.74176 81.5803 9.7332 81.5878 9.72465C81.6243 9.65858 81.611 9.59641 81.5778 9.54277C82.0565 8.84397 82.5543 8.15603 83.0064 7.44012C83.1311 7.23958 82.846 7.07868 82.689 7.21394L82.6782 7.20383C82.2003 7.69509 81.7598 8.22755 81.3467 8.781C81.3442 8.781 81.3442 8.781 81.3442 8.781C81.4224 8.58822 81.5047 8.39544 81.6036 8.20966C81.6642 8.08995 81.4764 7.98425 81.4107 8.10474C81.2171 8.45919 81.0891 8.84239 80.8672 9.18441C80.8256 9.25126 80.8605 9.32589 80.9212 9.36398C80.6869 9.6959 80.4558 10.0309 80.2339 10.3683C80.1483 10.4989 80.1849 10.6318 80.273 10.7251C80.2131 10.7701 80.155 10.8121 80.0951 10.8588C79.4103 9.65004 82.049 6.7592 83.466 5.78833ZM79.3421 15.9424C79.623 15.7442 79.8657 15.5079 80.0453 15.2211C80.5846 15.1806 81.1149 15.2055 81.6177 15.3244C80.8822 15.6703 80.12 15.8561 79.3421 15.9424ZM70.2408 21.6284C71.5033 21.309 72.6917 20.7843 73.9965 20.656C73.0358 21.4878 71.5215 21.8826 70.2408 21.6284ZM62.6446 28.0203C63.9353 27.5034 65.2068 26.6911 66.559 26.6546C66.0421 27.0393 65.4229 27.4086 64.7655 27.6845C64.6932 27.7016 64.6209 27.7226 64.5478 27.7412C63.9029 27.8882 63.2721 27.9651 62.6446 28.0203ZM59.6784 25.1808C59.4008 26.1788 59.0243 27.159 58.5165 28.0498C58.9154 27.1007 59.2786 26.133 59.6784 25.1808ZM60.266 26.0094C60.6076 24.9631 60.8386 23.8912 60.9974 22.8527C61.0165 23.8951 60.7347 24.9732 60.266 26.0094ZM59.8189 34.65C60.4081 34.2932 60.9599 33.8921 61.437 33.439C61.4378 33.4374 61.4395 33.4335 61.4412 33.4312C61.673 33.5019 61.8966 33.603 62.1135 33.7196C61.3813 34.1036 60.6134 34.4114 59.8189 34.65ZM54.5173 35.4794C56.3316 34.7954 58.0835 33.9823 60.0075 33.6698C58.6645 34.6298 56.9715 35.2797 55.2678 35.4452C55.1198 35.4577 54.9719 35.4678 54.8206 35.4771C54.7217 35.4833 54.6195 35.4778 54.5173 35.4794ZM52.4628 40.162C53.0903 40.1161 53.6912 40.1596 54.2381 40.3299C53.8499 40.5833 53.4211 40.8312 52.9623 41.0668C53.0496 40.9766 53.1368 40.8864 53.2133 40.7924C53.3762 40.5887 53.1983 40.27 52.9565 40.2195C52.7911 40.1845 52.6274 40.1791 52.4628 40.162ZM47.0748 42.0524C48.7337 42.0252 50.2795 40.9105 51.97 40.8996C50.7582 41.8573 48.6647 42.3828 47.0748 42.0524ZM49.7028 59.1199C48.8634 59.6104 47.8693 59.9314 46.9103 59.9928C47.384 59.8187 47.8594 59.6446 48.3364 59.472C48.383 59.4564 48.4071 59.423 48.4204 59.3881C48.8409 59.273 49.2706 59.1821 49.7028 59.1199ZM45.4808 60.5183C45.5132 60.5082 45.5431 60.4957 45.5747 60.4841C47.3441 60.8673 49.4767 60.1902 50.8704 59.0204C51.2403 59.0149 51.6084 59.0437 51.9716 59.0896C50.2654 60.2299 47.4314 61.3562 45.4808 60.5183ZM40.3737 60.1288C39.649 60.7165 38.8844 61.2715 38.0774 61.755C38.8013 61.1533 39.5459 60.582 40.3737 60.1288ZM41.7234 64.2867C42.6526 64.233 43.5684 64.0302 44.3621 63.7278C44.6821 63.8537 44.9805 64.0038 45.258 64.1724C44.1194 64.5067 42.8994 64.5121 41.7234 64.2867ZM39.3714 63.4604C39.9731 63.2855 40.6297 63.1899 41.3045 63.1813C41.3328 63.1813 41.361 63.1798 41.391 63.1806C42.1032 63.179 42.8238 63.2754 43.5044 63.4511C42.1955 63.8156 40.6197 63.9035 39.3714 63.4604ZM36.7792 63.1246C38.6891 62.2983 40.3438 60.9295 41.8539 59.5793C40.8341 61.1844 38.6849 62.6178 36.7792 63.1246ZM29.9227 68.1391C29.9401 68.1251 29.9576 68.1064 29.9759 68.0924C30.2161 68.0093 30.4612 67.9245 30.7172 67.8445C30.7446 67.8989 30.7936 67.944 30.8618 67.9416C32.406 67.9175 33.9809 67.1697 35.4752 67.6377C33.8371 68.4165 31.7486 68.4788 29.9227 68.1391ZM30.1304 66.8697C30.674 66.2657 31.2507 65.6019 31.914 65.0904C31.6588 65.4923 31.3846 65.8934 31.0737 66.2774C30.7538 66.4709 30.4429 66.6723 30.1304 66.8697ZM29.8869 64.9785C30.3972 64.4134 30.9316 63.8506 31.5541 63.3936C31.6813 63.3011 33.3077 62.0123 33.0027 62.9163C32.8373 63.406 32.5905 63.9384 32.2855 64.4818C32.2747 64.4841 32.263 64.4764 32.2506 64.4834C31.2765 64.8876 30.5161 65.6921 29.7972 66.4049C29.2553 66.9435 28.5563 67.5296 28.007 68.1647C28.3519 66.9917 29.0384 65.9144 29.8869 64.9785ZM23.2672 54.1264C23.2473 54.215 23.2232 54.3036 23.2041 54.3915C22.9174 53.4206 22.5849 52.4637 22.2134 51.5209C22.6946 52.5104 23.1334 53.5209 23.2672 54.1264ZM24.5089 46.1651C24.4067 45.8876 24.3219 45.6024 24.2679 45.2992C24.0967 44.3439 24.0435 43.3831 24.1474 42.4271C24.4491 42.9914 24.6444 43.6303 24.7483 44.2934C24.5363 44.9106 24.4574 45.5355 24.5089 46.1651ZM26.1121 38.3687C25.1023 36.7962 23.9496 34.5793 24.5006 32.9399C24.848 33.3371 25.1522 33.7678 25.4115 34.2264C25.3442 34.2575 25.2893 34.3096 25.3034 34.3958C25.4888 35.7328 26.162 37.0278 26.1121 38.3687ZM27.4776 28.4774C27.2174 27.428 27.0795 26.3576 27.2249 25.33C27.3945 25.5974 27.5216 25.8905 27.6272 26.1952C27.5266 26.2092 27.4377 26.2768 27.4385 26.4043C27.4452 27.0976 27.4626 27.7855 27.4776 28.4774ZM33.956 10.3372C33.695 11.4316 33.1731 12.9078 32.3943 13.427C32.4874 13.1479 32.583 12.8704 32.6927 12.6062C33.0318 11.7977 33.4182 11.0228 33.956 10.3372ZM29.483 11.4643C29.3874 11.4954 29.3118 11.5669 29.2927 11.664C29.1747 11.2412 29.0949 10.8168 29.05 10.3924C29.2287 10.7289 29.3667 11.0951 29.483 11.4643Z" fill="#455C6B" fill-opacity="0.6"/>
</svg>
