<svg width="344" height="184" viewBox="0 0 344 184" fill="none" xmlns="http://www.w3.org/2000/svg">
<path d="M111.995 3.00425C111.981 3.04992 111.978 3.09799 111.963 3.14366L111.955 3.14487L111.946 3.20616C111.429 4.73618 111.327 6.30585 111.689 7.8575C111.704 8.01615 111.707 8.17961 111.739 8.33826C111.744 8.37431 111.803 8.39957 111.844 8.42841C110.16 12.6867 109.481 16.9775 108.705 21.2983C108.655 21.2743 108.652 21.2443 108.573 21.225C108.565 21.225 108.562 21.2226 108.559 21.2202C108.147 20.0904 107.459 18.9775 105.799 18.2419C105.636 17.9246 105.498 17.6457 105.364 17.4546C104.51 16.3237 103.608 15.0929 101.534 14.23C100.807 13.9283 99.7018 14.1639 99.6288 14.5509C99.0541 17.9414 102.514 21.5219 106.852 24.344C107.153 24.5387 107.579 24.6168 107.996 24.6156C107.214 27.6143 105.954 30.5674 104.542 33.5084C104.393 31.7044 103.745 29.9183 102.216 28.1491C101.858 27.7381 100.802 27.678 100.154 27.922C99.48 27.904 98.7916 28.053 98.5611 28.3799C96.9041 30.6299 97.9573 33.0805 99.6231 35.3053C99.9615 36.0336 100.329 36.7523 100.667 37.4434C100.825 37.7667 101.613 37.9122 102.33 37.8821C102.319 37.9434 102.298 38.0047 102.289 38.0684C101.534 39.5684 100.799 41.0744 100.096 42.5804C99.8301 40.7342 98.6399 38.9446 95.7809 37.5816C95.1449 37.2763 93.9693 37.4615 93.7242 37.8076C91.3349 41.1885 94.1531 44.9733 96.5657 48.2209C96.7291 48.4456 97.1258 48.5694 97.5663 48.6091C96.6298 50.9504 95.6642 53.2856 94.7015 55.6233C93.0853 53.228 89.8034 50.8939 86.5856 49.4876C85.9759 49.2208 84.8906 49.2941 84.4559 49.603C79.5023 53.0765 86.6352 58.2939 91.2474 61.2266C91.4954 61.384 91.8688 61.4538 92.2422 61.479C91.3029 63.6628 90.3431 65.8455 89.3599 68.0245C89.357 68.0089 89.3599 67.9933 89.3629 67.9801C89.3745 67.8647 89.2432 67.7757 89.0652 67.7036C88.3592 66.2397 87.064 64.8515 84.9198 63.7506C84.313 63.4369 82.9476 63.6159 82.7668 63.9885C81.7457 66.0606 81.699 68.2397 82.7055 70.3201C83.3415 71.6338 84.2313 73.3477 86.3172 74.5472C85.1327 77.0099 83.9104 79.4702 82.6326 81.9269C80.5817 79.1866 75.8848 75.6241 74.7675 74.8885C74.3503 74.6145 73.0959 74.5256 72.7341 74.8862C69.8547 77.7419 73.4839 81.231 77.0984 84.2393C77.8511 85.2754 78.7058 86.2873 79.7211 87.2693C79.2601 88.113 78.8226 88.9568 78.3471 89.7969C72.2674 100.405 65.6509 110.958 58.7164 121.473C54.8043 124.418 50.9709 127.381 47.3447 130.379C27.1043 147.108 8.32558 165.194 0.0141384 183.656C-0.143397 184.015 1.06146 184.142 1.34735 183.797C16.7304 165.129 30.6285 146.672 52.7563 129.077C53.3369 128.609 53.9699 128.146 54.5621 127.678C53.4069 129.393 52.2691 131.109 51.1051 132.821C41.2183 147.294 28.3618 161.384 18.58 175.847C18.2153 176.391 20.0999 176.554 20.5783 176.058C37.4638 158.838 50.7988 140.835 62.3718 122.688C72.4103 117.336 83.0935 112.313 95.6701 108.006C96.2885 108.182 97.4351 108.008 97.4584 107.627C97.4642 107.55 97.4934 107.473 97.4993 107.396C97.7181 107.324 97.9427 107.254 98.1615 107.182C99.6551 106.916 101.158 106.56 102.648 106.122C103.133 106.178 103.608 106.234 104.113 106.282C112.366 107.98 125.22 107.208 132.224 104.972C132.819 104.78 132.536 104.404 132.005 104.261C125.847 102.602 117.541 102.83 110.044 103.66C117.958 101.542 126.13 99.7138 134.491 98.0636C134.508 98.2126 134.698 98.3628 135.007 98.441C136.641 98.8448 138.502 99.108 140.445 99.2618C146.881 100.345 154.311 100.696 160.875 99.6452C161.368 99.5659 161.75 99.2727 161.237 99.0972C160.026 98.6849 158.626 98.3472 157.17 98.0491C157.185 97.8953 157.024 97.7402 156.689 97.6717C151.729 96.6609 145.574 96.6117 140.051 96.9939C145.9 95.8977 151.837 94.8689 157.847 93.8761C165.942 96.0588 178.817 93.6117 185.395 91.4086C185.955 91.2199 185.626 90.8221 184.969 90.7584C183.446 90.6118 181.897 90.5445 180.334 90.5096C180.523 90.4135 180.751 90.3269 180.943 90.2284C181.471 89.9387 180.713 89.5962 180.01 89.5697C172.795 89.3342 165.77 90.8377 159.411 92.0553C158.815 92.173 159.238 92.5324 159.836 92.4783C160.452 92.4207 161.068 92.3485 161.674 92.2764C161.006 92.417 160.341 92.554 159.705 92.7079C159.667 92.7175 159.656 92.7332 159.626 92.744C158.859 92.8449 158.089 92.9447 157.322 93.048C156.998 93.0144 156.697 93.0564 156.522 93.1538C152.076 93.7571 147.648 94.4374 143.246 95.179C146.361 94.0191 148.873 92.661 150.174 91.2812C150.478 90.9567 149.597 90.7176 148.923 90.768C139.176 91.4976 131.877 94.6045 124.983 97.3052C124.484 97.4987 124.595 97.8136 125.01 97.995C124.832 98.0672 124.662 98.1441 124.487 98.2174C124.137 98.3676 124.607 98.6513 125.047 98.5227C125.427 98.4049 125.788 98.2787 126.162 98.1573C126.188 98.2366 126.281 98.3051 126.424 98.3568C121.973 99.2979 117.614 100.323 113.329 101.396C116.123 99.5924 117.958 97.6766 118.049 96.0588C118.06 95.8256 117.46 95.6321 116.914 95.7006C107.22 96.9458 95.7868 101.971 95.2092 106.513C85.3661 109.669 76.3633 113.219 68.6382 117.14C86.1042 104.593 105.691 92.4988 127.416 81.1817C132.869 78.3464 138.479 75.552 144.208 72.7973C144.494 72.9811 145.282 72.9944 145.413 72.7348C145.518 72.5112 145.638 72.2924 145.743 72.0701C150.431 69.8334 155.183 67.6171 160.044 65.4308C160.122 65.4513 160.219 65.4693 160.309 65.4933C159.711 65.6063 159.466 66.0065 160.189 66.1399C170.543 68.0834 185.868 65.3046 194.13 62.6376C194.853 62.4032 194.567 61.902 193.847 61.7302C185.238 59.7014 173.16 61.8768 164.102 63.6184C170.362 60.8372 176.745 58.092 183.245 55.389C183.327 55.514 183.537 55.6281 183.931 55.6462C184.231 55.6594 184.552 55.6618 184.855 55.6714C184.893 55.6786 184.908 55.6918 184.946 55.6978C189.158 56.0909 193.628 56.0368 197.972 55.6486C206.143 55.3 214.277 54.3277 220.983 52.6282C221.599 52.472 221.891 52.0477 221.249 51.8349C210.936 48.3759 195.022 52.0621 185.363 54.5128C193.809 51.0249 202.423 47.5959 211.208 44.2378C213.34 44.6344 215.91 44.7077 218.507 44.6223C221.897 44.7834 225.549 44.4048 228.924 43.7594C233.636 43.2258 238.257 42.525 242.458 41.4938C243.321 41.2799 243.426 40.7042 242.467 40.5047C233.379 38.5756 223.058 40.7775 215.076 42.7811C222.973 39.7919 230.955 36.8413 239.068 33.9495C239.094 33.9964 239.12 34.0445 239.225 34.0889C242.566 35.4771 249.025 35.0961 253.144 34.6622C258.159 34.1322 263.687 33.2813 267.118 31.6022C267.55 31.3883 267.649 30.9664 266.882 30.8342C259.104 29.4977 248.657 31.2152 242.006 32.9519C241.165 33.1719 241.122 33.6707 241.991 33.8846C242.157 33.9255 242.329 33.9555 242.504 33.994C241.632 33.9086 240.798 33.8065 240.025 33.6635C239.969 33.6539 239.94 33.6598 239.891 33.6562C247.703 30.8775 255.594 28.1407 263.55 25.4485C272.354 26.2718 282.708 26.1636 290.273 24.0639C291.054 23.8476 291.232 23.3199 290.284 23.1204C284.088 21.8224 276.78 22.487 270.19 23.4028C269.901 23.4389 269.618 23.475 269.329 23.5134C274.067 21.9305 278.813 20.3572 283.592 18.802C286.107 19.1193 289.418 18.8104 291.702 18.5917C296.279 18.1566 301.283 17.5568 305.306 16.5232C305.997 16.3453 306.207 15.8141 305.309 15.6566C301.808 15.0449 297.986 14.9956 294.322 15.3381C297.041 14.4691 299.754 13.6014 302.479 12.742C303.059 12.6435 303.634 12.5317 304.217 12.4091C310.259 13.3105 319.565 11.9836 324.236 10.5786C324.852 10.3935 324.831 10.099 324.236 9.90793C320.904 8.85147 317.202 8.84185 313.439 9.31179C317.736 7.97768 322.045 6.65079 326.357 5.33832C326.389 5.36957 326.427 5.39843 326.517 5.41886C329.254 6.08712 333.417 4.79628 335.614 4.18571C338.764 3.30352 342.493 2.26388 343.951 0.755493C344.115 0.593237 343.846 0.334839 343.461 0.269936C336.387 -0.965615 327.816 2.29992 323.79 4.80467C319.387 5.72893 315.084 6.74095 310.854 7.82266C313.217 6.54985 315.157 5.14843 316.415 3.64606C316.727 3.27467 315.633 3.00903 314.901 3.16648C311.487 3.89242 309.226 5.13642 307.397 6.49697C305.804 7.67844 303.564 8.88753 302.283 10.1315C298.797 11.1183 295.372 12.1519 291.985 13.2144C294.22 11.4404 295.512 9.575 295.182 8.13513C295.107 7.77336 294.328 7.60993 293.54 7.74574C289.689 8.40559 272.999 15.8369 279.382 17.4102C278.673 17.6566 277.982 17.9102 277.273 18.1602C277.186 18.171 277.113 18.1866 277.028 18.1962C276.69 18.2383 276.52 18.3357 276.462 18.4438C271.64 20.1541 266.902 21.9077 262.199 23.6829C263.107 23.0194 263.894 22.3404 264.609 21.7154C266.634 19.9522 268.752 18.0688 269.09 16.1001C269.163 15.6831 267.946 15.5917 267.302 15.7948C260.37 17.9787 255.282 21.7202 255.002 25.3331C254.973 25.63 255.472 25.7946 256.035 25.8199C255.872 25.8836 255.726 25.9497 255.557 26.0037C255.32 26.0843 255.309 26.1912 255.367 26.2934C249.839 28.4184 244.366 30.5481 238.922 32.6418C243.208 30.0722 246.174 26.8078 245.466 24.1156C245.375 23.7646 244.447 23.4305 243.59 23.6673C234.412 26.2417 228.892 30.9051 227.682 35.3726C227.512 35.9615 229.543 36.0708 230.199 35.649C230.748 35.2896 231.241 34.9218 231.772 34.5577C231.909 34.5468 232.034 34.5156 232.119 34.4531C235.617 31.9808 238.493 29.3667 241.915 26.8739C242.493 26.4473 241.603 26.0626 240.687 26.0506C241.431 25.7369 242.198 25.4449 243.003 25.1721C242.817 28.7838 236.819 32.5517 231.343 35.1094C231.002 35.2632 231.083 35.4338 231.317 35.5456C228.831 36.4843 226.345 37.4134 223.866 38.322C218.95 40.1297 214.061 41.953 209.203 43.781C214.171 40.8328 217.488 37.1322 216.155 33.7993C216.027 33.4736 215.047 33.3678 214.425 33.5012C213.655 33.6683 212.917 33.875 212.199 34.0986C212.109 34.1202 212.021 34.1442 211.949 34.1767C204.824 36.4675 200.218 41.4097 200.626 45.1344C200.332 45.5815 200.055 46.0286 199.807 46.4709C199.629 46.7762 200.305 46.9853 200.909 46.948C194.01 49.603 187.183 52.2917 180.468 55.0188C185.699 51.8951 188.805 47.5922 186.836 44.0683C186.655 43.7546 185.827 43.6777 185.197 43.7894C176.036 45.3976 170.505 51.1751 172.734 55.3193C172.425 56.0596 172.142 56.7964 171.9 57.5139C171.786 57.8625 172.964 58.1389 173.408 57.7675C173.723 57.5043 173.968 57.2339 174.242 56.9647C174.511 57.0872 174.887 57.1533 175.292 57.1558C167.734 60.2807 160.327 63.4621 153.095 66.718C157.616 64.1844 158.179 58.3961 157.745 56.3793C157.64 55.9262 156.339 55.782 155.717 56.1546C151.265 58.8348 148.342 61.9898 146.831 65.2289C145.515 67.0498 144.605 68.9127 144.243 70.7865C136.454 74.4402 128.89 78.1818 121.637 82.0495C101.735 92.6562 83.2744 103.858 66.8616 115.504C72.2761 106.657 77.3172 97.7967 82.1891 88.9892C82.6267 88.9808 83.0614 88.8282 82.9418 88.6118C82.863 88.458 82.7551 88.3029 82.6676 88.1491C82.7259 88.0493 82.7726 87.9544 82.8339 87.8546C83.7995 86.1023 84.7301 84.3487 85.6315 82.5939C91.8571 85.2129 110.595 77.4065 113.41 75.5881C113.965 75.2323 113.051 74.7119 112.054 74.8549C110.233 75.1109 108.465 75.4258 106.727 75.7756C106.487 75.6217 106.097 75.5099 105.58 75.5135C97.3008 75.5472 90.8974 78.7154 86.2559 81.3379C87.2274 79.4077 88.1667 77.4715 89.0682 75.5388C89.532 75.5292 89.9521 75.3429 89.7975 75.1398C89.6896 75.0064 89.5408 74.8802 89.4299 74.7516C90.1826 73.1134 90.9323 71.4764 91.6558 69.8394C91.7083 69.8646 91.8105 69.8778 91.8746 69.9007C91.8426 69.9235 91.7959 69.9488 91.7609 69.9692C91.4721 70.1555 92.0497 70.4031 92.5135 70.2793C92.8023 70.2024 93.0736 70.1134 93.3537 70.0305C100.183 70.2649 106.292 66.8996 110.648 64.3023C111.275 64.2265 111.925 64.1736 112.593 64.134C110.916 66.9885 101.68 70.8646 94.7482 70.8357C93.7358 70.8297 93.7825 71.4331 94.7598 71.4704C103.36 71.8045 113.889 66.9248 114.84 63.6568C114.907 63.4369 114.326 63.2313 113.825 63.2422C113.32 63.2506 112.809 63.2782 112.302 63.3131C112.824 63.0018 113.32 62.7133 113.769 62.4633C114.391 62.1208 113.221 61.7386 112.439 61.9104C111.225 62.1725 106.63 63.6099 102.534 65.176C98.6953 66.3479 95.2792 67.8827 92.8461 69.3081C92.7353 69.2997 92.6185 69.3081 92.5106 69.2997C92.2568 69.2745 92.0439 69.2961 91.8776 69.343C95.1071 62.0186 98.0827 54.6726 101.093 47.3062C101.152 47.3302 101.187 47.3519 101.265 47.3711C101.073 47.7281 102.231 48.0057 102.855 47.7245C102.96 47.6812 103.051 47.6319 103.153 47.585C111.852 47.9131 121.433 40.6994 123.312 38.1682C123.56 37.8352 122.719 37.4999 121.917 37.5997C112.949 38.715 104.93 43.0346 101.802 46.7161C101.793 46.7209 101.796 46.7221 101.788 46.7209C101.604 46.6932 101.476 46.7161 101.336 46.7341C101.671 45.8976 102.015 45.0634 102.359 44.2245C103.684 41.0179 105.426 37.8413 106.945 34.6514C107.415 34.6358 107.888 34.5324 108.156 34.3762C108.311 34.3005 108.404 34.2079 108.521 34.1226C113.915 34.1118 121.024 27.9544 122.609 26.8222C123.137 26.4448 122.051 25.9473 121.103 26.1997C116.803 27.3511 113.501 28.9148 110.569 30.6323C110.035 30.9472 109.113 31.3714 108.209 31.8402C109.186 29.5181 109.965 27.1852 110.289 24.8223C110.347 24.3692 110.391 23.9185 110.446 23.4678C110.642 23.4557 110.831 23.4233 110.966 23.3488C111.803 22.8788 112.363 22.3392 112.853 21.7851C118.837 21.2815 121.698 16.2768 122.121 14.4006C122.224 13.9643 120.835 13.8117 120.164 14.0653C116.328 15.5112 112.555 18.052 110.755 20.4895C111.091 16.9463 111.412 13.4055 112.448 9.89231C112.795 10.5257 113.189 11.1531 113.725 11.7625C114.265 12.3682 116.812 12.337 116.631 11.6014C116.304 10.3094 115.514 8.95485 114.968 7.59551C116.713 6.24457 116.578 2.24585 116.438 1.71942C116.307 1.24827 114.898 1.04153 114.23 1.47902C113.661 1.85161 113.212 2.2278 112.856 2.61241C112.445 2.64846 112.089 2.76267 111.995 3.00425ZM108.996 33.2885C110.335 32.3967 113.151 30.958 113.673 30.6587C114.936 29.934 116.255 29.2441 117.71 28.6071C115.099 30.4856 111.456 32.8678 108.996 33.2885ZM104.877 46.7293C109.874 43.9818 112.363 40.5323 120.248 38.9085C117.64 41.4529 111.006 46.0286 104.877 46.7293ZM99.7485 67.5822C100.411 67.2973 101.085 67.0125 101.767 66.7373C102.672 66.3803 103.5 66.0738 104.087 65.8551C105.181 65.4753 106.324 65.1279 107.558 64.8419C104.755 66.4368 101.251 68.1207 97.6538 68.9019C97.8989 68.5185 98.7333 68.0473 99.7485 67.5822ZM103.564 78.4919C104.352 78.0652 105.081 77.6253 105.738 77.165C106.549 76.9751 107.366 76.7936 108.203 76.6241C106.899 77.1938 105.303 77.8392 103.564 78.4919ZM87.6328 82.2274C91.9796 80.487 95.8889 77.8416 101.706 76.9654C97.2775 78.1601 93.3158 79.6625 90.2643 81.4113C89.8559 81.6456 90.1068 81.9593 90.6056 82.1348C89.4591 82.285 88.4468 82.3271 87.6328 82.2274ZM149.016 67.2325C148.911 67.2445 148.812 67.2625 148.707 67.2697C148.759 67.0606 148.815 66.8515 148.876 66.6411C149.958 65.0726 151.219 63.5306 152.747 62.0283C151.846 63.8179 150.767 65.5871 149.016 67.2325ZM180.64 48.7881C180.048 51.0898 178.752 53.4407 175.745 55.3108C177.431 53.1342 178.475 50.8842 180.64 48.7881ZM182.702 51.2592C183.583 49.5261 183.942 47.7317 184.111 46.0382C184.138 45.7365 183.738 45.5586 183.219 45.4877C183.782 45.2786 184.38 45.0947 184.984 44.9276C185.83 46.9396 184.692 49.091 182.971 50.9768C182.909 51.0393 182.819 51.1402 182.702 51.2592ZM232.224 31.994C233.653 30.1972 235.821 28.4749 238.662 27.0062C237.962 27.5254 237.28 28.0446 236.62 28.571C235.159 29.714 233.715 30.8582 232.224 31.994ZM327.08 5.11839C327.833 4.89604 328.557 4.66647 329.301 4.44412C329.969 4.241 329.691 3.88763 329.073 3.82153C332.314 2.3468 335.698 0.787936 340.188 0.837214C342.738 0.866059 340.631 1.42494 339.412 1.89848C337.915 2.47179 336.331 3.00666 334.63 3.47179C333.078 3.89246 329.219 5.14603 327.08 5.11839ZM306.085 11.9776C311.236 10.7132 316.461 9.01013 322.016 10.2469C319.609 10.8599 316.844 11.2697 314.122 11.5401C311.712 11.7805 308.774 12.0714 306.085 11.9776ZM312.975 4.85397C311.727 5.92847 310.128 6.93324 308.305 7.86711C309.661 6.80944 310.997 5.71092 312.975 4.85397ZM296.618 16.2107C298.281 16.1098 299.967 16.1025 301.583 16.2239C299.882 16.5604 298.077 16.8285 296.279 17.064C296.6 16.9727 296.927 16.8837 297.225 16.7768C297.817 16.5725 297.295 16.2047 296.618 16.2107ZM292.983 8.95003C292.674 10.7817 290.182 13.0617 286.792 14.9187C286.638 14.9727 286.483 15.0256 286.323 15.0761C286.346 15.0629 286.363 15.0497 286.39 15.0364C286.518 14.9343 286.471 14.8381 286.355 14.7552C288.035 13.6747 289.783 12.611 291.37 11.5041C291.807 11.194 290.807 10.9452 290.255 11.1543L290.217 11.1387C288.54 11.8983 286.994 12.7216 285.544 13.5773C285.535 13.5773 285.535 13.5773 285.535 13.5773C285.809 13.2793 286.098 12.9812 286.445 12.6939C286.658 12.5088 285.999 12.3454 285.768 12.5317C285.089 13.0798 284.639 13.6723 283.86 14.2011C283.714 14.3045 283.837 14.4199 284.05 14.4788C283.227 14.992 282.416 15.51 281.637 16.0316C281.337 16.2335 281.465 16.4391 281.774 16.5833C281.564 16.653 281.36 16.7179 281.15 16.79C278.746 14.9211 288.009 10.4512 292.983 8.95003ZM278.507 24.6504C279.493 24.3439 280.345 23.9786 280.975 23.5351C282.869 23.4726 284.73 23.511 286.495 23.6949C283.913 24.2298 281.238 24.517 278.507 24.6504ZM246.56 33.4423C250.991 32.9483 255.163 32.1371 259.743 31.9387C256.37 33.2248 251.055 33.8353 246.56 33.4423ZM219.895 43.3255C224.426 42.5263 228.889 41.2703 233.636 41.2138C231.821 41.8087 229.648 42.3796 227.34 42.8063C227.086 42.8327 226.833 42.8652 226.576 42.894C224.312 43.1212 222.098 43.2402 219.895 43.3255ZM209.483 38.935C208.509 40.4782 207.187 41.9938 205.405 43.3712C206.805 41.9037 208.08 40.4073 209.483 38.935ZM211.546 40.2162C212.745 38.5985 213.556 36.941 214.113 35.3353C214.18 36.947 213.191 38.6141 211.546 40.2162ZM209.976 53.5765C212.045 53.0248 213.982 52.4046 215.656 51.7039C215.659 51.7015 215.665 51.6955 215.671 51.6919C216.485 51.8013 217.27 51.9576 218.031 52.1378C215.461 52.7316 212.765 53.2075 209.976 53.5765ZM191.367 54.8589C197.735 53.8012 203.885 52.5441 210.639 52.0609C205.924 53.5452 199.982 54.5501 194.001 54.8061C193.482 54.8253 192.963 54.8409 192.432 54.8553C192.084 54.8649 191.726 54.8565 191.367 54.8589ZM184.155 62.0992C186.358 62.0283 188.467 62.0956 190.387 62.3588C189.024 62.7506 187.519 63.134 185.909 63.4982C186.215 63.3588 186.521 63.2193 186.79 63.0739C187.361 62.759 186.737 62.2662 185.888 62.1881C185.308 62.134 184.733 62.1256 184.155 62.0992ZM165.242 65.0222C171.065 64.9801 176.491 63.2566 182.425 63.2398C178.172 64.7205 170.823 65.533 165.242 65.0222ZM174.467 91.4123C171.52 92.1707 168.031 92.667 164.665 92.762C166.327 92.4928 167.996 92.2235 169.671 91.9567C169.834 91.9327 169.919 91.881 169.965 91.8269C171.442 91.649 172.95 91.5084 174.467 91.4123ZM159.647 93.5745C159.761 93.5588 159.866 93.5396 159.976 93.5216C166.187 94.1141 173.673 93.0673 178.566 91.2584C179.864 91.25 181.156 91.2945 182.431 91.3654C176.442 93.1286 166.494 94.8701 159.647 93.5745ZM141.72 92.9723C139.176 93.8809 136.492 94.7391 133.659 95.4867C136.2 94.5564 138.814 93.673 141.72 92.9723ZM146.458 99.4013C149.719 99.3183 152.934 99.0046 155.72 98.5371C156.843 98.7318 157.891 98.9638 158.865 99.2246C154.868 99.7414 150.586 99.7498 146.458 99.4013ZM138.202 98.1236C140.314 97.8532 142.618 97.7054 144.987 97.6922C145.086 97.6922 145.186 97.6898 145.291 97.691C147.791 97.6886 150.32 97.8376 152.709 98.1092C148.115 98.6729 142.583 98.8087 138.202 98.1236ZM129.102 97.6044C135.806 96.3268 141.615 94.2103 146.916 92.1226C143.336 94.6045 135.792 96.8208 129.102 97.6044ZM105.035 105.358C105.096 105.336 105.157 105.307 105.221 105.286C106.065 105.157 106.925 105.026 107.824 104.902C107.92 104.987 108.092 105.056 108.331 105.053C113.752 105.015 119.28 103.859 124.525 104.583C118.775 105.787 111.444 105.883 105.035 105.358ZM105.764 103.395C107.672 102.461 109.696 101.435 112.025 100.644C111.129 101.265 110.166 101.886 109.075 102.479C107.952 102.779 106.861 103.09 105.764 103.395ZM104.909 100.471C106.7 99.5972 108.576 98.727 110.761 98.0203C111.208 97.8773 116.917 95.8845 115.846 97.2823C115.266 98.0395 114.399 98.8628 113.329 99.7029C113.291 99.7065 113.25 99.6945 113.206 99.7054C109.787 100.33 107.118 101.574 104.594 102.676C102.692 103.509 100.239 104.416 98.3102 105.398C99.5209 103.584 101.931 101.918 104.909 100.471ZM81.6728 83.6913C81.6027 83.8283 81.5182 83.9653 81.4511 84.1011C80.4446 82.5999 79.2776 81.1204 77.9736 79.6625C79.6627 81.1925 81.2031 82.755 81.6728 83.6913ZM86.0313 71.3814C85.6725 70.9523 85.3749 70.5113 85.1852 70.0425C84.5843 68.5654 84.3976 67.0798 84.7623 65.6015C85.8213 66.4741 86.5068 67.462 86.8715 68.4873C86.1275 69.4416 85.8504 70.4079 86.0313 71.3814ZM91.6588 59.3264C88.1142 56.8949 84.0679 53.4671 86.0021 50.9323C87.2215 51.5465 88.2893 52.2123 89.1995 52.9215C88.9632 52.9695 88.7706 53.0501 88.8202 53.1835C89.4708 55.2508 91.8338 57.2531 91.6588 59.3264ZM96.4519 44.0322C95.5388 42.4097 95.0545 40.7547 95.565 39.1658C96.1601 39.5792 96.6065 40.0323 96.977 40.5034C96.624 40.5251 96.3119 40.6297 96.3148 40.8268C96.3382 41.8989 96.3994 42.9625 96.4519 44.0322ZM119.192 15.9835C118.276 17.6758 116.444 19.9582 113.711 20.7611C114.037 20.3296 114.373 19.9005 114.758 19.4919C115.948 18.2419 117.305 17.0436 119.192 15.9835ZM103.491 17.7263C103.156 17.7744 102.89 17.8849 102.823 18.0352C102.409 17.3813 102.129 16.7251 101.971 16.0689C102.599 16.5893 103.083 17.1554 103.491 17.7263Z" fill="#455C6B" fill-opacity="0.6"/>
</svg>
